# xmcd
#
# Track frame offsets: 
#        150
#        16801
#        27713
#        51985
#        69225
#        91374
#        112908
#        137101
#        154053
#        169475
#        185000
#        200749
#
# Disc length: 2889 seconds
#
# Revision: 0
# Processed by: cddbd v1.5.2PL0 Copyright (c) Steve Scherf et al.
# Submitted via: ExactAudioCopy v0.99pb3
#
DISCID=aa0b470c
DTITLE=Alberta Adams - I'm On The Move
DYEAR=2004
DGENRE=Blues
TTITLE0=Mr. Blues
TTITLE1=I Paid My Dues To The Blues
TTITLE2=A Fool Like You
TTITLE3=Slow Down Baby
TTITLE4=Remember Me
TTITLE5=I'm On The Move
TTITLE6=Tired Of Being Alone
TTITLE7=Your Lovin'
TTITLE8=Detroit
TTITLE9=Leavin'
TTITLE10=Come And See About Me
TTITLE11=Keep On Keeping On
EXTD=
EXTT0=
EXTT1=
EXTT2=
EXTT3=
EXTT4=
EXTT5=
EXTT6=
EXTT7=
EXTT8=
EXTT9=
EXTT10=
EXTT11=
PLAYORDER=
